<svg xmlns="http://www.w3.org/2000/svg" xmlns:xlink="http://www.w3.org/1999/xlink" version="1.1" data-diagram-type="DESCRIPTION" style="width:1585px;height:405px;background:#FFFFFF;" width="1585px" height="405px" viewBox="0 0 1585 405" zoomAndPan="magnify" preserveAspectRatio="none" contentStyleType="text/css"><?plantuml 1.2026.8?><defs/><g font-family="sans-serif" lengthAdjust="spacing"><!--entity ==Component--><g class="entity" data-qualified-name="..Component" id="ent0001" data-source-line="209"><rect x="38.18" y="37.27" width="187.591" height="50.266" fill="#85BBF0" style="stroke:#5D82A8;stroke-width:2;" rx="2.5" ry="2.5"/><text x="48.18" y="71.404" fill="#000" font-size="26" textLength="167.591" font-weight="700">Component</text></g><!--entity ==Component, Not Wired--><g class="entity" data-qualified-name="..Component. Not Wired" id="ent0002" data-source-line="211"><rect x="261.24" y="22.13" width="197.468" height="80.531" fill="#85BBF0" style="stroke:#5D82A8;stroke-width:2;stroke-dasharray:10,10;" rx="2.5" ry="2.5"/><text x="271.24" y="56.264" fill="#000" font-size="26" textLength="177.468" font-weight="700">Component,</text><text x="286.094" y="86.529" fill="#000" font-size="26" textLength="52.051" font-weight="700">Not</text><text x="338.144" y="86.529" fill="#000" font-size="26" font-weight="700"> </text><text x="347.196" y="86.529" fill="#000" font-size="26" textLength="86.658" font-weight="700">Wired</text></g><!--entity ==Component, Static--><g class="entity" data-qualified-name="..Component. Static" id="ent0003" data-source-line="213"><rect x="493.24" y="22.13" width="197.468" height="80.531" fill="#D5E8F7" style="stroke:#5D82A8;stroke-width:2;" rx="2.5" ry="2.5"/><text x="503.24" y="56.264" fill="#000" font-size="26" textLength="177.468" font-weight="700">Component,</text><text x="549.248" y="86.529" fill="#000" font-size="26" textLength="85.452" font-weight="700">Static</text></g><!--entity ==Component, Subject to Change--><g class="entity" data-qualified-name="..Component. Subject to Change" id="ent0004" data-source-line="215"><rect x="725.24" y="7" width="197.468" height="110.797" fill="#85BBF0" style="stroke:#C2410C;stroke-width:2;stroke-dasharray:2,2;" rx="2.5" ry="2.5"/><text x="735.24" y="41.134" fill="#000" font-size="26" textLength="177.468" font-weight="700">Component,</text><text x="749.186" y="71.399" fill="#000" font-size="26" textLength="110.233" font-weight="700">Subject</text><text x="859.419" y="71.399" fill="#000" font-size="26" font-weight="700"> </text><text x="868.471" y="71.399" fill="#000" font-size="26" textLength="30.291" font-weight="700">to</text><text x="769.029" y="101.665" fill="#000" font-size="26" textLength="109.891" font-weight="700">Change</text></g><!--entity ==Database--><g class="entity" data-qualified-name="..Database" id="ent0005" data-source-line="217"><path d="M52.79,214.56 C52.79,204.56 131.973,204.56 131.973,204.56 C131.973,204.56 211.156,204.56 211.156,214.56 L211.156,253.826 C211.156,263.826 131.973,263.826 131.973,263.826 C131.973,263.826 52.79,263.826 52.79,253.826 L52.79,214.56" style="stroke:#0B4884;stroke-width:2;" fill="#1168BD"/><path d="M52.79,214.56 C52.79,224.56 131.973,224.56 131.973,224.56 C131.973,224.56 211.156,224.56 211.156,214.56" style="stroke:#0B4884;stroke-width:2;" fill="none"/><text x="62.79" y="252.694" fill="#FFF" font-size="26" textLength="138.366" font-weight="700">Database</text></g><!--entity ==External, Planned--><g class="entity" data-qualified-name="..External. Planned" id="ent0006" data-source-line="219"><rect x="245.84" y="193.93" width="152.26" height="80.531" fill="#E8F5E9" style="stroke:#2E7D32;stroke-width:2;stroke-dasharray:10,10;" rx="2.5" ry="2.5"/><text x="255.84" y="228.064" fill="#1B5E20" font-size="26" textLength="132.26" font-weight="700">External,</text><text x="262.581" y="258.329" fill="#1B5E20" font-size="26" textLength="118.777" font-weight="700">Planned</text></g><!--entity ==External, Planned Removal--><g class="entity" data-qualified-name="..External. Planned Removal" id="ent0007" data-source-line="221"><rect x="432.84" y="178.8" width="152.26" height="110.797" fill="#999" style="stroke:#C2410C;stroke-width:2;stroke-dasharray:10,10;" rx="2.5" ry="2.5"/><text x="442.84" y="212.934" fill="#FFF" font-size="26" textLength="132.26" font-weight="700">External,</text><text x="449.581" y="243.199" fill="#FFF" font-size="26" textLength="118.777" font-weight="700">Planned</text><text x="445.963" y="273.465" fill="#FFF" font-size="26" textLength="126.014" font-weight="700">Removal</text></g><!--entity ==Infrastructure, Planned Removal--><g class="entity" data-qualified-name="..Infrastructure. Planned Removal" id="ent0008" data-source-line="223"><rect x="620.08" y="178.8" width="235.782" height="110.797" fill="#5D82A8" style="stroke:#C2410C;stroke-width:2;stroke-dasharray:10,10;" rx="2.5" ry="2.5"/><text x="630.08" y="212.934" fill="#FFF" font-size="26" textLength="215.782" font-weight="700">Infrastructure,</text><text x="678.582" y="243.199" fill="#FFF" font-size="26" textLength="118.777" font-weight="700">Planned</text><text x="674.964" y="273.465" fill="#FFF" font-size="26" textLength="126.014" font-weight="700">Removal</text></g><!--entity ==Lambda--><g class="entity" data-qualified-name="..Lambda" id="ent0009" data-source-line="225"><polygon points="247.94,370.73,189.96,350.59,73.99,350.59,16,370.73,73.99,390.86,189.96,390.86,247.94,370.73" fill="#1168BD" style="stroke:#0B4884;stroke-width:2;stroke-linejoin:miter;stroke-miterlimit:10;"/><text x="73.986" y="379.724" fill="#FFF" font-size="26" textLength="115.972" font-weight="700">Lambda</text></g><!--entity ==Queue--><g class="entity" data-qualified-name="..Queue" id="ent0010" data-source-line="227"><path d="M287.78,350.59 L392.17,350.59 C397.17,350.59 397.17,370.723 397.17,370.723 C397.17,370.723 397.17,390.856 392.17,390.856 L287.78,390.856 C282.78,390.856 282.78,370.723 282.78,370.723 C282.78,370.723 282.78,350.59 287.78,350.59" style="stroke:#0B4884;stroke-width:2;" fill="#1168BD"/><path d="M392.17,350.59 C387.17,350.59 387.17,370.723 387.17,370.723 C387.17,390.856 392.17,390.856 392.17,390.856" style="stroke:#0B4884;stroke-width:2;" fill="none"/><text x="287.78" y="379.724" fill="#FFF" font-size="26" textLength="94.39" font-weight="700">Queue</text></g><!--entity 1--><g class="entity" data-qualified-name="1" id="ent0011" data-source-line="229"><rect x="957.75" y="44.25" width="24.45" height="36.297" fill="none" style="stroke:none;" rx="2.5" ry="2.5"/></g><!--entity 2--><g class="entity" data-qualified-name="2" id="ent0013" data-source-line="232"><rect x="1194.75" y="44.25" width="24.45" height="36.297" fill="none" style="stroke:none;" rx="2.5" ry="2.5"/></g><!--entity 3--><g class="entity" data-qualified-name="3" id="ent0015" data-source-line="235"><rect x="1402.75" y="44.25" width="24.45" height="36.297" fill="none" style="stroke:none;" rx="2.5" ry="2.5"/></g><!--link 1 to 1--><g class="link" data-entity-1="ent0011" data-entity-2="ent0011" id="lnk12" data-source-line="230" data-link-type="dependency"><path d="M982.55,51.11 C998.36,42.03 1017.2,45.79 1017.2,62.4 C1017.2,79.01 1002.696,85.26 986.886,76.18" style="stroke:#444;stroke-width:2;stroke-dasharray:10,10;" fill="none" id="1-to-1"/><polygon points="982.55,73.69,988.362,81.641,986.886,76.18,992.347,74.704,982.55,73.69" fill="#444" style="stroke:#444;stroke-width:2;stroke-linejoin:miter;stroke-miterlimit:10;"/><text x="1023.2" y="71.177" fill="#444" font-size="24" textLength="148.406">Relationship</text></g><!--link 2 to 2--><g class="link" data-entity-1="ent0013" data-entity-2="ent0013" id="lnk14" data-source-line="233" data-link-type="dependency"><path d="M1219.55,51.11 C1235.36,42.03 1254.2,45.79 1254.2,62.4 C1254.2,79.01 1239.696,85.26 1223.886,76.18" style="stroke:#444;stroke-width:2;stroke-dasharray:10,10;" fill="none" id="2-to-2"/><polygon points="1219.55,73.69,1225.362,81.641,1223.886,76.18,1229.347,74.704,1219.55,73.69" fill="#444" style="stroke:#444;stroke-width:2;stroke-linejoin:miter;stroke-miterlimit:10;"/><text x="1260.2" y="71.177" fill="#444" font-size="24" textLength="42.047">Not</text><text x="1302.247" y="71.177" fill="#444" font-size="24"> </text><text x="1309.876" y="71.177" fill="#444" font-size="24" textLength="70.266">Wired</text></g><!--link 3 to 3--><g class="link" data-entity-1="ent0015" data-entity-2="ent0015" id="lnk16" data-source-line="236" data-link-type="dependency"><path d="M1427.55,51.11 C1443.36,42.03 1462.2,45.79 1462.2,62.4 C1462.2,79.01 1447.696,85.26 1431.886,76.18" style="stroke:#2E7D32;stroke-width:2;stroke-dasharray:10,10;" fill="none" id="3-to-3"/><polygon points="1427.55,73.69,1433.362,81.641,1431.886,76.18,1437.347,74.704,1427.55,73.69" fill="#2E7D32" style="stroke:#2E7D32;stroke-width:2;stroke-linejoin:miter;stroke-miterlimit:10;"/><text x="1468.2" y="71.177" fill="#2E7D32" font-size="24" textLength="96.27">Planned</text></g><?plantuml-src vLZRSk8u47ttLwYohs7Y2zu1Db0Lxg6IsU4I77YJBO6Ts99NbWDaQ_vzPGp4N4nCPcecatLLADAIkdqEwbOV1PY30FkGGKuP89HWoNOG1W7735E-yB4aNGPyuUAA102Zb8D_nHS0gj1wd38Q4bIZBcKbyCTa-Vor76rImjVs_FA9xD_4tyK5QBZOmuIVrwZdYu242_EdbJ7NC-QkQGn3L9lNJLMPcQhkcgHRJWrRq4rp8iTXRno2rtOT5LHOUB7t8n0ba9Wvi1thaU0WA05r_xNbvVDYxplFOhcQZorjofndOONkbUjCIVJg9M29JypY2NqR8Zfpo7GJyXRE7I_q30TnMpYAVQTHSlv5C6qu3ACCv0G3hoXVDv5lUSF77qMK8kUKtuMiFeVSiR8mTQVrRDHo7r9PGZekJ3v_kEtK3yq7R770AQZPa4nnDhA63lI63wXMbSr5jGvRpN2itfsUYvQQLsHhZpmrfxvh-kgGGnC6QLmrHlSzU-GrdyVTSZedYl9dmKJxdCXclb38ltr3xPRRdy98OouS4EYUVtKX8Qd5gOdRFTVoTDkipRkcs3NciS8a4ax7nNs6LFmPQUht5IR5rB4g_sAMG0zxz0cwfx1rtUo8yQ8wCcRfUwkuV3BdsqdC_PBzTKqc30QSXHOF6Sx8NyVqnelH_HVP8g9MjOUBSVz47dUB-s_FumtqJ0HJ-BeT6OepRZN-9pMh6-8mhOJta35KFdxvxc5ND4YK1BRZHqma_y_TUSD0d6I-EFMVOSkThQWu324z2_RR_JGPS0XmrhVVxekFuhXfw4-YSxc7znrtVBNvYTyfhiI1UXnLingC33qS6ztlHPGyNvE8TktP4LrzlOu0LAC4WcoHwmwhdKnwyHrdrWfQtuDCp04j1WaF10i4Jd6y-c_Vfuo7nE6BBVHtgc9RH1pjJhLjUSqGjM-d0wCPZWmKrvywdGwqwipKEZ8oT1-r7yiVXAqQeq6GiqBEnL14Iak0yNDThVDaQRTyf0rbeSB2yQnyEk9amhrDJ1nFsRTYhbCFEkG5RAzLv2F33JyCG2wsVk139cO279-bO48PO8bw5G2701TFCTdI1eF4qXGw4jxtADaRIu3T6VicNLwixgia9XIlqBek1cVbyaOBdu7BozTkcogfgy_1vWJAu6ZhPkQOq_W68ul7zGt6KM-xQZ-RuyDgFmg4LaeuYhDMnIa-jrJntajkf15O7NWfNWvgejUzhPN2ALwJ2c4lmeuWoHWdioA9ujbu3gUKHD7YjZt5wQPjZnRz4pMrqP9bTvkoOjFTxi3w5Cq_b9kL2e01K2G5v78Le8XPHtiHCRq4pf9Jpaw9eqhgCexwMfpTJYwE-vA7fmJL96qPL7irQABHYWEkTwpq7m00?></g></svg>