<svg xmlns="http://www.w3.org/2000/svg" xmlns:xlink="http://www.w3.org/1999/xlink" version="1.1" data-diagram-type="DESCRIPTION" style="width:3589px;height:631px;background:#FFFFFF;" width="3589px" height="631px" viewBox="0 0 3589 631" zoomAndPan="magnify" preserveAspectRatio="none" contentStyleType="text/css"><?plantuml 1.2026.8?><defs/><g font-family="sans-serif" lengthAdjust="spacing"><g class="title" data-source-line="1"><text x="1399.245" y="32.277" fill="#444" font-size="24" textLength="783.75" font-weight="700">Dynamic View: Smarter Grants Management: Opportunity</text><text x="1457.909" y="60.215" fill="#444" font-size="24" textLength="666.422" font-weight="700">Upload a file, virus-scan it, and report the result.</text></g><!--cluster Smarter Grants Management: Opportunity\n<size:16>[Software System]</size>--><g class="cluster" data-qualified-name="Smarter Grants Management. Opportunity.n.size.16..Software System...size." id="ent0001" data-source-line="96"><rect x="7" y="85.035" width="3568.24" height="489" fill="#FFF" style="stroke:#0B4884;stroke-width:2;" rx="2.5" ry="2.5"/><text x="1503.179" y="109.313" fill="#FFF" font-size="24" textLength="575.883" font-weight="700">Smarter Grants Management: Opportunity</text><text x="1706.975" y="129.824" fill="#FFF" font-size="16" textLength="168.289" font-weight="700">[Software System]</text></g><!--entity SmarterGrantsManagementOpportunity.WebFrontend--><g class="entity" data-qualified-name="Smarter Grants Management. Opportunity.n.size.16..Software System...size..SmarterGrantsManagementOpportunity.WebFrontend" id="ent0002" data-source-line="97"><rect x="23" y="327.645" width="291.629" height="124.766" fill="#1168BD" style="stroke:#0B4884;stroke-width:2;" rx="2.5" ry="2.5"/><text x="64.757" y="361.779" fill="#FFF" font-size="26" textLength="64.924" font-weight="700">Web</text><text x="129.681" y="361.779" fill="#FFF" font-size="26" font-weight="700"> </text><text x="138.733" y="361.779" fill="#FFF" font-size="26" textLength="134.139" font-weight="700">Frontend</text><text x="90.529" y="382.762" fill="#FFF" font-size="16" textLength="89.82">[Container:</text><text x="180.35" y="382.762" fill="#FFF" font-size="16"> </text><text x="185.436" y="382.762" fill="#FFF" font-size="16" textLength="61.664">Next.js]</text><text x="165" y="408.813" fill="#FFF" font-size="24"> </text><text x="33" y="436.751" fill="#FFF" font-size="24" textLength="174.469">Grantor-facing</text><text x="207.469" y="436.751" fill="#FFF" font-size="24"> </text><text x="215.098" y="436.751" fill="#FFF" font-size="24" textLength="49.629">web</text><text x="264.727" y="436.751" fill="#FFF" font-size="24"> </text><text x="272.355" y="436.751" fill="#FFF" font-size="24" textLength="32.273">UI.</text></g><!--entity SmarterGrantsManagementOpportunity.APIGateway--><g class="entity" data-qualified-name="Smarter Grants Management. Opportunity.n.size.16..Software System...size..SmarterGrantsManagementOpportunity.APIGateway" id="ent0003" data-source-line="98"><rect x="1001.34" y="349.745" width="469.906" height="208.578" fill="#5D82A8" style="stroke:#C2410C;stroke-width:2;stroke-dasharray:10,10;" rx="2.5" ry="2.5"/><text x="1143.611" y="383.879" fill="#FFF" font-size="26" textLength="48.852" font-weight="700">API</text><text x="1192.463" y="383.879" fill="#FFF" font-size="26" font-weight="700"> </text><text x="1201.514" y="383.879" fill="#FFF" font-size="26" textLength="127.461" font-weight="700">Gateway</text><text x="1114.176" y="404.862" fill="#FFF" font-size="16" textLength="89.82">[Container:</text><text x="1203.996" y="404.862" fill="#FFF" font-size="16"> </text><text x="1209.082" y="404.862" fill="#FFF" font-size="16" textLength="36.922">AWS</text><text x="1246.004" y="404.862" fill="#FFF" font-size="16"> </text><text x="1251.09" y="404.862" fill="#FFF" font-size="16" textLength="25.313">API</text><text x="1276.403" y="404.862" fill="#FFF" font-size="16"> </text><text x="1281.488" y="404.862" fill="#FFF" font-size="16" textLength="76.922">Gateway]</text><text x="1232.479" y="430.913" fill="#FFF" font-size="24"> </text><text x="1011.34" y="458.851" fill="#FFF" font-size="24" textLength="62.977">Front</text><text x="1074.317" y="458.851" fill="#FFF" font-size="24"> </text><text x="1081.945" y="458.851" fill="#FFF" font-size="24" textLength="54.469">door</text><text x="1136.414" y="458.851" fill="#FFF" font-size="24"> </text><text x="1144.043" y="458.851" fill="#FFF" font-size="24" textLength="33">for</text><text x="1177.043" y="458.851" fill="#FFF" font-size="24"> </text><text x="1184.672" y="458.851" fill="#FFF" font-size="24" textLength="28.043">all</text><text x="1212.715" y="458.851" fill="#FFF" font-size="24"> </text><text x="1220.344" y="458.851" fill="#FFF" font-size="24" textLength="37.969">API</text><text x="1258.313" y="458.851" fill="#FFF" font-size="24"> </text><text x="1265.942" y="458.851" fill="#FFF" font-size="24" textLength="78.375">traffic,</text><text x="1344.317" y="458.851" fill="#FFF" font-size="24"> </text><text x="1351.945" y="458.851" fill="#FFF" font-size="24" textLength="109.301">including</text><text x="1020.961" y="486.788" fill="#FFF" font-size="24" textLength="39.387">the</text><text x="1060.348" y="486.788" fill="#FFF" font-size="24"> </text><text x="1067.977" y="486.788" fill="#FFF" font-size="24" textLength="102.832">frontend</text><text x="1170.809" y="486.788" fill="#FFF" font-size="24"> </text><text x="1178.438" y="486.788" fill="#FFF" font-size="24" textLength="79.277">(which</text><text x="1257.715" y="486.788" fill="#FFF" font-size="24"> </text><text x="1265.344" y="486.788" fill="#FFF" font-size="24" textLength="42.422">has</text><text x="1307.766" y="486.788" fill="#FFF" font-size="24"> </text><text x="1315.395" y="486.788" fill="#FFF" font-size="24" textLength="28.582">its</text><text x="1343.977" y="486.788" fill="#FFF" font-size="24"> </text><text x="1351.606" y="486.788" fill="#FFF" font-size="24" textLength="49.523">own</text><text x="1401.129" y="486.788" fill="#FFF" font-size="24"> </text><text x="1408.758" y="486.788" fill="#FFF" font-size="24" textLength="42.867">key</text><text x="1033.805" y="514.726" fill="#FFF" font-size="24" textLength="50.918">with</text><text x="1084.723" y="514.726" fill="#FFF" font-size="24"> </text><text x="1092.352" y="514.726" fill="#FFF" font-size="24" textLength="29.895">no</text><text x="1122.246" y="514.726" fill="#FFF" font-size="24"> </text><text x="1129.875" y="514.726" fill="#FFF" font-size="24" textLength="48.75">rate</text><text x="1178.625" y="514.726" fill="#FFF" font-size="24"> </text><text x="1186.254" y="514.726" fill="#FFF" font-size="24" textLength="69.785">limit).</text><text x="1256.039" y="514.726" fill="#FFF" font-size="24"> </text><text x="1263.668" y="514.726" fill="#FFF" font-size="24" textLength="129.516">Rate-limits</text><text x="1393.184" y="514.726" fill="#FFF" font-size="24"> </text><text x="1400.813" y="514.726" fill="#FFF" font-size="24" textLength="37.969">API</text><text x="1038.99" y="542.663" fill="#FFF" font-size="24" textLength="42.867">key</text><text x="1081.858" y="542.663" fill="#FFF" font-size="24"> </text><text x="1089.486" y="542.663" fill="#FFF" font-size="24" textLength="86.051">clients.</text><text x="1175.537" y="542.663" fill="#FFF" font-size="24"> </text><text x="1183.166" y="542.663" fill="#FFF" font-size="24" textLength="96.27">Planned</text><text x="1279.436" y="542.663" fill="#FFF" font-size="24"> </text><text x="1287.065" y="542.663" fill="#FFF" font-size="24" textLength="33">for</text><text x="1320.065" y="542.663" fill="#FFF" font-size="24"> </text><text x="1327.694" y="542.663" fill="#FFF" font-size="24" textLength="105.902">removal.</text></g><!--entity SmarterGrantsManagementOpportunity.API--><g class="entity" data-qualified-name="Smarter Grants Management. Opportunity.n.size.16..Software System...size..SmarterGrantsManagementOpportunity.API" id="ent0004" data-source-line="99"><rect x="2501.33" y="362.365" width="426.813" height="171.328" fill="#1168BD" style="stroke:#0B4884;stroke-width:2;" rx="2.5" ry="2.5"/><text x="2690.31" y="396.499" fill="#FFF" font-size="26" textLength="48.852" font-weight="700">API</text><text x="2511.33" y="417.482" fill="#FFF" font-size="16" textLength="89.82">[Container:</text><text x="2601.15" y="417.482" fill="#FFF" font-size="16"> </text><text x="2606.236" y="417.482" fill="#FFF" font-size="16" textLength="55.461">Python</text><text x="2661.697" y="417.482" fill="#FFF" font-size="16"> </text><text x="2666.783" y="417.482" fill="#FFF" font-size="16" textLength="77.695">(APIFlask,</text><text x="2744.478" y="417.482" fill="#FFF" font-size="16"> </text><text x="2749.564" y="417.482" fill="#FFF" font-size="16" textLength="105.977">SQLAlchemy,</text><text x="2855.541" y="417.482" fill="#FFF" font-size="16"> </text><text x="2860.627" y="417.482" fill="#FFF" font-size="16" textLength="57.516">boto3),</text><text x="2611.256" y="436.107" fill="#FFF" font-size="16" textLength="72.43">Gunicorn</text><text x="2683.685" y="436.107" fill="#FFF" font-size="16"> </text><text x="2688.771" y="436.107" fill="#FFF" font-size="16" textLength="19.93">on</text><text x="2708.701" y="436.107" fill="#FFF" font-size="16"> </text><text x="2713.787" y="436.107" fill="#FFF" font-size="16" textLength="31.438">ECS</text><text x="2745.225" y="436.107" fill="#FFF" font-size="16"> </text><text x="2750.31" y="436.107" fill="#FFF" font-size="16" textLength="67.906">Fargate]</text><text x="2710.922" y="462.158" fill="#FFF" font-size="24"> </text><text x="2533.553" y="490.096" fill="#FFF" font-size="24" textLength="61.734">REST</text><text x="2595.287" y="490.096" fill="#FFF" font-size="24"> </text><text x="2602.916" y="490.096" fill="#FFF" font-size="24" textLength="37.969">API</text><text x="2640.885" y="490.096" fill="#FFF" font-size="24"> </text><text x="2648.514" y="490.096" fill="#FFF" font-size="24" textLength="33">for</text><text x="2681.514" y="490.096" fill="#FFF" font-size="24"> </text><text x="2689.143" y="490.096" fill="#FFF" font-size="24" textLength="28.043">all</text><text x="2717.185" y="490.096" fill="#FFF" font-size="24"> </text><text x="2724.814" y="490.096" fill="#FFF" font-size="24" textLength="171.105">grantor-facing</text><text x="2647.055" y="518.033" fill="#FFF" font-size="24" textLength="135.363">operations.</text></g><!--entity SmarterGrantsManagementOpportunity.FileScanner--><g class="entity" data-qualified-name="Smarter Grants Management. Opportunity.n.size.16..Software System...size..SmarterGrantsManagementOpportunity.FileScanner" id="ent0005" data-source-line="100"><polygon points="2301.33,249.035,2096.31,177.675,1686.27,177.675,1481.25,249.035,1686.27,320.385,2096.31,320.385,2301.33,249.035" fill="#1168BD" style="stroke:#0B4884;stroke-width:2;stroke-linejoin:miter;stroke-miterlimit:10;"/><text x="1800.575" y="206.809" fill="#FFF" font-size="26" textLength="53.219" font-weight="700">File</text><text x="1853.793" y="206.809" fill="#FFF" font-size="26" font-weight="700"> </text><text x="1862.845" y="206.809" fill="#FFF" font-size="26" textLength="119.158" font-weight="700">Scanner</text><text x="1686.27" y="227.792" fill="#FFF" font-size="16" textLength="89.82">[Container:</text><text x="1776.09" y="227.792" fill="#FFF" font-size="16"> </text><text x="1781.176" y="227.792" fill="#FFF" font-size="16" textLength="36.922">AWS</text><text x="1818.098" y="227.792" fill="#FFF" font-size="16"> </text><text x="1823.184" y="227.792" fill="#FFF" font-size="16" textLength="64.422">Lambda</text><text x="1887.605" y="227.792" fill="#FFF" font-size="16"> </text><text x="1892.691" y="227.792" fill="#FFF" font-size="16" textLength="66.789">(Python,</text><text x="1959.48" y="227.792" fill="#FFF" font-size="16"> </text><text x="1964.566" y="227.792" fill="#FFF" font-size="16" textLength="57.516">boto3),</text><text x="2022.082" y="227.792" fill="#FFF" font-size="16"> </text><text x="2027.168" y="227.792" fill="#FFF" font-size="16" textLength="69.141">ClamAV]</text><text x="1887.475" y="253.843" fill="#FFF" font-size="24"> </text><text x="1691.367" y="281.781" fill="#FFF" font-size="24" textLength="137.449">Virus-scans</text><text x="1828.816" y="281.781" fill="#FFF" font-size="24"> </text><text x="1836.445" y="281.781" fill="#FFF" font-size="24" textLength="94.242">uploads</text><text x="1930.688" y="281.781" fill="#FFF" font-size="24"> </text><text x="1938.316" y="281.781" fill="#FFF" font-size="24" textLength="50.918">with</text><text x="1989.234" y="281.781" fill="#FFF" font-size="24"> </text><text x="1996.863" y="281.781" fill="#FFF" font-size="24" textLength="94.348">ClamAV</text><text x="1711.471" y="309.718" fill="#FFF" font-size="24" textLength="45.152">and</text><text x="1756.623" y="309.718" fill="#FFF" font-size="24"> </text><text x="1764.252" y="309.718" fill="#FFF" font-size="24" textLength="86.332">reports</text><text x="1850.584" y="309.718" fill="#FFF" font-size="24"> </text><text x="1858.213" y="309.718" fill="#FFF" font-size="24" textLength="80.93">results</text><text x="1939.143" y="309.718" fill="#FFF" font-size="24"> </text><text x="1946.771" y="309.718" fill="#FFF" font-size="24" textLength="24.094">to</text><text x="1970.865" y="309.718" fill="#FFF" font-size="24"> </text><text x="1978.494" y="309.718" fill="#FFF" font-size="24" textLength="39.387">the</text><text x="2017.881" y="309.718" fill="#FFF" font-size="24"> </text><text x="2025.51" y="309.718" fill="#FFF" font-size="24" textLength="45.598">API.</text></g><!--entity SmarterGrantsManagementOpportunity.FileStorage--><g class="entity" data-qualified-name="Smarter Grants Management. Opportunity.n.size.16..Software System...size..SmarterGrantsManagementOpportunity.FileStorage" id="ent0006" data-source-line="101"><path d="M526.63,214.175 C526.63,204.175 758.987,204.175 758.987,204.175 C758.987,204.175 991.345,204.175 991.345,214.175 L991.345,355.878 C991.345,365.878 758.987,365.878 758.987,365.878 C758.987,365.878 526.63,365.878 526.63,355.878 L526.63,214.175" style="stroke:#0B4884;stroke-width:2;" fill="#1168BD"/><path d="M526.63,214.175 C526.63,224.175 758.987,224.175 758.987,224.175 C758.987,224.175 991.345,224.175 991.345,214.175" style="stroke:#0B4884;stroke-width:2;" fill="none"/><text x="670.038" y="252.309" fill="#FFF" font-size="26" textLength="53.219" font-weight="700">File</text><text x="723.256" y="252.309" fill="#FFF" font-size="26" font-weight="700"> </text><text x="732.308" y="252.309" fill="#FFF" font-size="26" textLength="115.629" font-weight="700">Storage</text><text x="663.37" y="273.292" fill="#FFF" font-size="16" textLength="89.82">[Container:</text><text x="753.191" y="273.292" fill="#FFF" font-size="16"> </text><text x="758.276" y="273.292" fill="#FFF" font-size="16" textLength="64.664">Amazon</text><text x="822.941" y="273.292" fill="#FFF" font-size="16"> </text><text x="828.026" y="273.292" fill="#FFF" font-size="16" textLength="26.578">S3]</text><text x="755.173" y="299.343" fill="#FFF" font-size="24"> </text><text x="536.63" y="327.281" fill="#FFF" font-size="24" textLength="114.094">Uploaded</text><text x="650.724" y="327.281" fill="#FFF" font-size="24"> </text><text x="658.353" y="327.281" fill="#FFF" font-size="24" textLength="56.684">files,</text><text x="715.036" y="327.281" fill="#FFF" font-size="24"> </text><text x="722.665" y="327.281" fill="#FFF" font-size="24" textLength="50.484">split</text><text x="773.15" y="327.281" fill="#FFF" font-size="24"> </text><text x="780.778" y="327.281" fill="#FFF" font-size="24" textLength="45.973">into</text><text x="826.751" y="327.281" fill="#FFF" font-size="24"> </text><text x="834.38" y="327.281" fill="#FFF" font-size="24" textLength="146.965">unscanned/,</text><text x="617.618" y="355.218" fill="#FFF" font-size="24" textLength="108.914">scanned/</text><text x="726.532" y="355.218" fill="#FFF" font-size="24"> </text><text x="734.161" y="355.218" fill="#FFF" font-size="24" textLength="45.152">and</text><text x="779.314" y="355.218" fill="#FFF" font-size="24"> </text><text x="786.943" y="355.218" fill="#FFF" font-size="24" textLength="113.414">infected/.</text></g><!--entity SmarterGrantsManagementOpportunity.FileScanCache--><g class="entity" data-qualified-name="Smarter Grants Management. Opportunity.n.size.16..Software System...size..SmarterGrantsManagementOpportunity.FileScanCache" id="ent0007" data-source-line="102"><path d="M3114.14,310.175 C3114.14,300.175 3336.689,300.175 3336.689,300.175 C3336.689,300.175 3559.238,300.175 3559.238,310.175 L3559.238,451.878 C3559.238,461.878 3336.689,461.878 3336.689,461.878 C3336.689,461.878 3114.14,461.878 3114.14,451.878 L3114.14,310.175" style="stroke:#0B4884;stroke-width:2;" fill="#1168BD"/><path d="M3114.14,310.175 C3114.14,320.175 3336.689,320.175 3336.689,320.175 C3336.689,320.175 3559.238,320.175 3559.238,310.175" style="stroke:#0B4884;stroke-width:2;" fill="none"/><text x="3221.841" y="348.309" fill="#FFF" font-size="26" textLength="53.219" font-weight="700">File</text><text x="3275.059" y="348.309" fill="#FFF" font-size="26" font-weight="700"> </text><text x="3284.111" y="348.309" fill="#FFF" font-size="26" textLength="70.192" font-weight="700">Scan</text><text x="3354.304" y="348.309" fill="#FFF" font-size="26" font-weight="700"> </text><text x="3363.355" y="348.309" fill="#FFF" font-size="26" textLength="88.182" font-weight="700">Cache</text><text x="3206.036" y="369.292" fill="#FFF" font-size="16" textLength="89.82">[Container:</text><text x="3295.857" y="369.292" fill="#FFF" font-size="16"> </text><text x="3300.943" y="369.292" fill="#FFF" font-size="16" textLength="64.664">Amazon</text><text x="3365.607" y="369.292" fill="#FFF" font-size="16"> </text><text x="3370.693" y="369.292" fill="#FFF" font-size="16" textLength="96.648">DynamoDB]</text><text x="3332.874" y="395.343" fill="#FFF" font-size="24"> </text><text x="3124.14" y="423.281" fill="#FFF" font-size="24" textLength="58.348">Scan</text><text x="3182.488" y="423.281" fill="#FFF" font-size="24"> </text><text x="3190.117" y="423.281" fill="#FFF" font-size="24" textLength="73.746">status</text><text x="3263.863" y="423.281" fill="#FFF" font-size="24"> </text><text x="3271.492" y="423.281" fill="#FFF" font-size="24" textLength="39.867">per</text><text x="3311.359" y="423.281" fill="#FFF" font-size="24"> </text><text x="3318.988" y="423.281" fill="#FFF" font-size="24" textLength="97.559">pending</text><text x="3416.546" y="423.281" fill="#FFF" font-size="24"> </text><text x="3424.175" y="423.281" fill="#FFF" font-size="24" textLength="44.18">file,</text><text x="3468.355" y="423.281" fill="#FFF" font-size="24"> </text><text x="3475.984" y="423.281" fill="#FFF" font-size="24" textLength="73.254">polled</text><text x="3213.191" y="451.218" fill="#FFF" font-size="24" textLength="29.438">by</text><text x="3242.628" y="451.218" fill="#FFF" font-size="24"> </text><text x="3250.257" y="451.218" fill="#FFF" font-size="24" textLength="39.387">the</text><text x="3289.644" y="451.218" fill="#FFF" font-size="24"> </text><text x="3297.273" y="451.218" fill="#FFF" font-size="24" textLength="81.738">upload</text><text x="3379.011" y="451.218" fill="#FFF" font-size="24"> </text><text x="3386.64" y="451.218" fill="#FFF" font-size="24" textLength="73.547">client.</text></g><!--link SmarterGrantsManagementOpportunity.WebFrontend to SmarterGrantsManagementOpportunity.APIGateway--><g class="link" data-entity-1="ent0002" data-entity-2="ent0003" id="lnk8" data-source-line="105" data-link-type="dependency"><path d="M225.61,452.875 C252.63,478.625 287.29,505.515 324.63,519.035 C544.27,598.545 807.954,566.073 996.314,523.263" style="stroke:#444;stroke-width:2;stroke-dasharray:10,10;" fill="none" id="SmarterGrantsManagementOpportunity.WebFrontend-to-SmarterGrantsManagementOpportunity.APIGateway"/><polygon points="1001.19,522.155,991.527,520.249,996.314,523.263,993.3,528.05,1001.19,522.155" fill="#444" style="stroke:#444;stroke-width:2;stroke-linejoin:miter;stroke-miterlimit:10;"/><text x="338.63" y="419.312" fill="#444" font-size="24" textLength="23.355">1:</text><text x="361.985" y="419.312" fill="#444" font-size="24"> </text><text x="369.614" y="419.312" fill="#444" font-size="24" textLength="111.07">Requests</text><text x="480.685" y="419.312" fill="#444" font-size="24"> </text><text x="488.314" y="419.312" fill="#444" font-size="24">a</text><text x="361.083" y="447.25" fill="#444" font-size="24" textLength="119.484">presigned</text><text x="352.335" y="475.187" fill="#444" font-size="24" textLength="81.738">upload</text><text x="434.073" y="475.187" fill="#444" font-size="24"> </text><text x="441.702" y="475.187" fill="#444" font-size="24" textLength="47.613">URL</text><text x="367.056" y="495.699" fill="#444" font-size="16" textLength="107.539">[JSON/HTTPS,</text><text x="357.153" y="514.324" fill="#444" font-size="16" textLength="127.344">X-MGMT-Token]</text></g><!--link SmarterGrantsManagementOpportunity.WebFrontend to SmarterGrantsManagementOpportunity.APIGateway--><g class="link" data-entity-1="ent0002" data-entity-2="ent0003" id="lnk17" data-source-line="114" data-link-type="dependency"><path d="M314.99,392.165 C377.12,393.505 450.46,395.645 516.63,399.035 C678.62,407.325 855.838,420.907 996.248,432.697" style="stroke:#444;stroke-width:2;stroke-dasharray:10,10;" fill="none" id="SmarterGrantsManagementOpportunity.WebFrontend-to-SmarterGrantsManagementOpportunity.APIGateway-1"/><polygon points="1001.23,433.115,992.596,428.376,996.248,432.697,991.927,436.348,1001.23,433.115" fill="#444" style="stroke:#444;stroke-width:2;stroke-linejoin:miter;stroke-miterlimit:10;"/><text x="347.63" y="320.732" fill="#444" font-size="24" textLength="38.625">10:</text><text x="386.255" y="320.732" fill="#444" font-size="24"> </text><text x="393.884" y="320.732" fill="#444" font-size="24" textLength="99.867">Streams</text><text x="348.603" y="348.67" fill="#444" font-size="24" textLength="55.617">scan</text><text x="404.22" y="348.67" fill="#444" font-size="24"> </text><text x="411.849" y="348.67" fill="#444" font-size="24" textLength="80.93">results</text><text x="366.921" y="369.182" fill="#444" font-size="16" textLength="107.539">[JSON/HTTPS,</text><text x="357.019" y="387.807" fill="#444" font-size="16" textLength="127.344">X-MGMT-Token]</text></g><!--link SmarterGrantsManagementOpportunity.APIGateway to SmarterGrantsManagementOpportunity.API--><g class="link" data-entity-1="ent0003" data-entity-2="ent0004" id="lnk9" data-source-line="106" data-link-type="dependency"><path d="M1471.5,547.085 C1474.76,547.775 1478.01,548.425 1481.25,549.035 C1839.46,616.315 1939.47,592.695 2301.33,549.035 C2367.01,541.105 2432.478,527.534 2496.108,511.674" style="stroke:#444;stroke-width:2;stroke-dasharray:10,10;" fill="none" id="SmarterGrantsManagementOpportunity.APIGateway-to-SmarterGrantsManagementOpportunity.API"/><polygon points="2500.96,510.465,2491.26,508.761,2496.108,511.674,2493.195,516.523,2500.96,510.465" fill="#444" style="stroke:#444;stroke-width:2;stroke-linejoin:miter;stroke-miterlimit:10;"/><text x="1797.29" y="477.312" fill="#444" font-size="24" textLength="23.355">2:</text><text x="1820.645" y="477.312" fill="#444" font-size="24"> </text><text x="1828.274" y="477.312" fill="#444" font-size="24" textLength="110.297">Forwards</text><text x="1938.571" y="477.312" fill="#444" font-size="24"> </text><text x="1946.2" y="477.312" fill="#444" font-size="24" textLength="39.387">the</text><text x="1845.56" y="505.25" fill="#444" font-size="24" textLength="91.758">request</text><text x="1811.599" y="525.762" fill="#444" font-size="16" textLength="57.625">[HTTPS</text><text x="1869.224" y="525.762" fill="#444" font-size="16"> </text><text x="1874.31" y="525.762" fill="#444" font-size="16" textLength="23.719">via</text><text x="1898.028" y="525.762" fill="#444" font-size="16"> </text><text x="1903.114" y="525.762" fill="#444" font-size="16" textLength="68.164">backend</text><text x="1872.899" y="544.387" fill="#444" font-size="16" textLength="37.078">ALB]</text></g><!--link SmarterGrantsManagementOpportunity.APIGateway to SmarterGrantsManagementOpportunity.API--><g class="link" data-entity-1="ent0003" data-entity-2="ent0004" id="lnk18" data-source-line="115" data-link-type="dependency"><path d="M1471.65,453.075 C1755.01,451.925 2222.81,450.025 2496.07,448.915" style="stroke:#444;stroke-width:2;stroke-dasharray:10,10;" fill="none" id="SmarterGrantsManagementOpportunity.APIGateway-to-SmarterGrantsManagementOpportunity.API-1"/><polygon points="2501.07,448.895,2492.054,444.932,2496.07,448.915,2492.086,452.932,2501.07,448.895" fill="#444" style="stroke:#444;stroke-width:2;stroke-linejoin:miter;stroke-miterlimit:10;"/><text x="1813.354" y="350.003" fill="#444" font-size="24" textLength="38.625">11:</text><text x="1851.979" y="350.003" fill="#444" font-size="24"> </text><text x="1859.608" y="350.003" fill="#444" font-size="24" textLength="110.297">Forwards</text><text x="1825.806" y="377.94" fill="#444" font-size="24" textLength="39.387">the</text><text x="1865.192" y="377.94" fill="#444" font-size="24"> </text><text x="1872.821" y="377.94" fill="#444" font-size="24" textLength="84.633">stream</text><text x="1845.751" y="405.878" fill="#444" font-size="24" textLength="91.758">request</text><text x="1811.79" y="426.389" fill="#444" font-size="16" textLength="57.625">[HTTPS</text><text x="1869.415" y="426.389" fill="#444" font-size="16"> </text><text x="1874.501" y="426.389" fill="#444" font-size="16" textLength="23.719">via</text><text x="1898.22" y="426.389" fill="#444" font-size="16"> </text><text x="1903.306" y="426.389" fill="#444" font-size="16" textLength="68.164">backend</text><text x="1873.091" y="445.014" fill="#444" font-size="16" textLength="37.078">ALB]</text></g><!--link SmarterGrantsManagementOpportunity.API to SmarterGrantsManagementOpportunity.FileScanCache--><g class="link" data-entity-1="ent0004" data-entity-2="ent0007" id="lnk10" data-source-line="107" data-link-type="dependency"><path d="M2928.62,532.705 C2986.04,545.085 3047.85,548.765 3104.14,532.035 C3152.1,517.775 3195.321,492.977 3234.541,465.167" style="stroke:#444;stroke-width:2;stroke-dasharray:10,10;" fill="none" id="SmarterGrantsManagementOpportunity.API-to-SmarterGrantsManagementOpportunity.FileScanCache"/><polygon points="3238.62,462.275,3228.965,464.218,3234.541,465.167,3233.592,470.744,3238.62,462.275" fill="#444" style="stroke:#444;stroke-width:2;stroke-linejoin:miter;stroke-miterlimit:10;"/><text x="2948.494" y="451.312" fill="#444" font-size="24" textLength="23.355">3:</text><text x="2971.849" y="451.312" fill="#444" font-size="24"> </text><text x="2979.478" y="451.312" fill="#444" font-size="24" textLength="92.777">Creates</text><text x="3072.255" y="451.312" fill="#444" font-size="24"> </text><text x="3079.884" y="451.312" fill="#444" font-size="24">a</text><text x="2941.14" y="479.25" fill="#444" font-size="24" textLength="97.559">pending</text><text x="3038.699" y="479.25" fill="#444" font-size="24"> </text><text x="3046.328" y="479.25" fill="#444" font-size="24" textLength="55.617">scan</text><text x="2982.736" y="507.187" fill="#444" font-size="24" textLength="77.613">record</text><text x="2954.898" y="527.699" fill="#444" font-size="16" textLength="96.648">[DynamoDB</text><text x="3051.546" y="527.699" fill="#444" font-size="16"> </text><text x="3056.632" y="527.699" fill="#444" font-size="16" textLength="31.555">API]</text></g><!--link SmarterGrantsManagementOpportunity.API to SmarterGrantsManagementOpportunity.FileScanCache--><g class="link" data-entity-1="ent0004" data-entity-2="ent0007" id="lnk19" data-source-line="116" data-link-type="dependency"><path d="M2928.52,431.685 C3017.72,424.815 3101.65,418.325 3104.14,418.035 C3107.37,417.645 3105.669,417.875 3108.949,417.465" style="stroke:#444;stroke-width:2;stroke-dasharray:10,10;" fill="none" id="SmarterGrantsManagementOpportunity.API-to-SmarterGrantsManagementOpportunity.FileScanCache-1"/><polygon points="3113.91,416.845,3104.483,413.992,3108.949,417.465,3105.476,421.931,3113.91,416.845" fill="#444" style="stroke:#444;stroke-width:2;stroke-linejoin:miter;stroke-miterlimit:10;"/><text x="2939.14" y="365.312" fill="#444" font-size="24" textLength="38.625">12:</text><text x="2977.765" y="365.312" fill="#444" font-size="24"> </text><text x="2985.394" y="365.312" fill="#444" font-size="24" textLength="54.996">Polls</text><text x="3040.39" y="365.312" fill="#444" font-size="24"> </text><text x="3048.019" y="365.312" fill="#444" font-size="24" textLength="55.617">scan</text><text x="2984.515" y="393.25" fill="#444" font-size="24" textLength="73.746">status</text><text x="2954.744" y="413.762" fill="#444" font-size="16" textLength="96.648">[DynamoDB</text><text x="3051.392" y="413.762" fill="#444" font-size="16"> </text><text x="3056.478" y="413.762" fill="#444" font-size="16" textLength="31.555">API]</text></g><!--link SmarterGrantsManagementOpportunity.WebFrontend to SmarterGrantsManagementOpportunity.FileStorage--><g class="link" data-entity-1="ent0002" data-entity-2="ent0006" id="lnk11" data-source-line="108" data-link-type="dependency"><path d="M253.1,327.225 C275.25,313.735 299.91,301.345 324.63,294.035 C388.49,275.115 454.981,268.277 521.201,267.327" style="stroke:#444;stroke-width:2;stroke-dasharray:10,10;" fill="none" id="SmarterGrantsManagementOpportunity.WebFrontend-to-SmarterGrantsManagementOpportunity.FileStorage"/><polygon points="526.2,267.255,517.144,263.385,521.201,267.327,517.258,271.384,526.2,267.255" fill="#444" style="stroke:#444;stroke-width:2;stroke-linejoin:miter;stroke-miterlimit:10;"/><text x="333.593" y="186.852" fill="#444" font-size="24" textLength="23.355">4:</text><text x="356.948" y="186.852" fill="#444" font-size="24"> </text><text x="364.577" y="186.852" fill="#444" font-size="24" textLength="96.598">Uploads</text><text x="461.175" y="186.852" fill="#444" font-size="24"> </text><text x="468.804" y="186.852" fill="#444" font-size="24" textLength="39.387">the</text><text x="386.755" y="214.79" fill="#444" font-size="24" textLength="36.551">file</text><text x="423.306" y="214.79" fill="#444" font-size="24"> </text><text x="430.935" y="214.79" fill="#444" font-size="24" textLength="24.094">to</text><text x="351.224" y="242.727" fill="#444" font-size="24" textLength="139.336">unscanned/</text><text x="325.63" y="263.239" fill="#444" font-size="16" textLength="62.711">[HTTPS,</text><text x="388.341" y="263.239" fill="#444" font-size="16"> </text><text x="393.427" y="263.239" fill="#444" font-size="16" textLength="79.656">presigned</text><text x="473.083" y="263.239" fill="#444" font-size="16"> </text><text x="478.169" y="263.239" fill="#444" font-size="16" textLength="37.984">URL]</text></g><!--link SmarterGrantsManagementOpportunity.FileStorage to SmarterGrantsManagementOpportunity.FileScanner--><g class="link" data-entity-1="ent0006" data-entity-2="ent0005" id="lnk12" data-source-line="109" data-link-type="dependency"><path d="M991.7,334.955 C994.93,335.335 998.15,335.695 1001.34,336.035 C1053.27,341.455 1423.97,358.175 1471.25,336.035 C1477.54,333.085 1475.26,327.535 1481.25,324.035 C1510.86,306.735 1538.796,294.76 1572.426,284.3" style="stroke:#444;stroke-width:2;stroke-dasharray:10,10;" fill="none" id="SmarterGrantsManagementOpportunity.FileStorage-to-SmarterGrantsManagementOpportunity.FileScanner"/><polygon points="1577.2,282.815,1567.418,281.669,1572.426,284.3,1569.794,289.308,1577.2,282.815" fill="#444" style="stroke:#444;stroke-width:2;stroke-linejoin:miter;stroke-miterlimit:10;"/><text x="1148.3" y="283.313" fill="#444" font-size="24" textLength="23.355">5:</text><text x="1171.655" y="283.313" fill="#444" font-size="24"> </text><text x="1179.284" y="283.313" fill="#444" font-size="24" textLength="98.801">Triggers</text><text x="1278.085" y="283.313" fill="#444" font-size="24"> </text><text x="1285.714" y="283.313" fill="#444" font-size="24" textLength="39.387">the</text><text x="1208.892" y="311.25" fill="#444" font-size="24" textLength="55.617">scan</text><text x="1194.962" y="331.762" fill="#444" font-size="16" textLength="26.578">[S3</text><text x="1221.54" y="331.762" fill="#444" font-size="16"> </text><text x="1226.626" y="331.762" fill="#444" font-size="16" textLength="51.813">event]</text></g><!--link SmarterGrantsManagementOpportunity.FileScanner to SmarterGrantsManagementOpportunity.FileStorage--><g class="link" data-entity-1="ent0005" data-entity-2="ent0006" id="lnk14" data-source-line="111" data-link-type="dependency"><path d="M1479.87,249.055 C1329.28,250.765 1157.5,254.695 1001.34,263.035 C998.19,263.195 1000.011,263.078 996.821,263.268" style="stroke:#444;stroke-width:2;stroke-dasharray:10,10;" fill="none" id="SmarterGrantsManagementOpportunity.FileScanner-to-SmarterGrantsManagementOpportunity.FileStorage"/><polygon points="991.83,263.565,1001.052,267.023,996.821,263.268,1000.576,259.037,991.83,263.565" fill="#444" style="stroke:#444;stroke-width:2;stroke-linejoin:miter;stroke-miterlimit:10;"/><text x="1136.8" y="168.552" fill="#444" font-size="24" textLength="23.355">7:</text><text x="1160.155" y="168.552" fill="#444" font-size="24"> </text><text x="1167.784" y="168.552" fill="#444" font-size="24" textLength="76.863">Moves</text><text x="1244.648" y="168.552" fill="#444" font-size="24"> </text><text x="1252.277" y="168.552" fill="#444" font-size="24" textLength="39.387">the</text><text x="1291.663" y="168.552" fill="#444" font-size="24"> </text><text x="1299.292" y="168.552" fill="#444" font-size="24" textLength="36.551">file</text><text x="1149.913" y="196.49" fill="#444" font-size="24" textLength="24.094">to</text><text x="1174.007" y="196.49" fill="#444" font-size="24"> </text><text x="1181.636" y="196.49" fill="#444" font-size="24" textLength="108.914">scanned/</text><text x="1290.55" y="196.49" fill="#444" font-size="24"> </text><text x="1298.179" y="196.49" fill="#444" font-size="24" textLength="24.551">or</text><text x="1183.429" y="224.427" fill="#444" font-size="24" textLength="105.785">infected/</text><text x="1204.712" y="244.939" fill="#444" font-size="16" textLength="26.578">[S3</text><text x="1231.29" y="244.939" fill="#444" font-size="16"> </text><text x="1236.376" y="244.939" fill="#444" font-size="16" textLength="31.555">API]</text></g><!--link SmarterGrantsManagementOpportunity.FileScanner to SmarterGrantsManagementOpportunity.FileScanCache--><g class="link" data-entity-1="ent0005" data-entity-2="ent0007" id="lnk13" data-source-line="110" data-link-type="dependency"><path d="M2167.74,295.935 C2271.93,311.685 2391.79,327.425 2501.33,336.035 C2768.45,357.015 2837.15,322.395 3104.14,345.035 C3107.38,345.305 3105.672,345.126 3108.962,345.436" style="stroke:#444;stroke-width:2;stroke-dasharray:10,10;" fill="none" id="SmarterGrantsManagementOpportunity.FileScanner-to-SmarterGrantsManagementOpportunity.FileScanCache"/><polygon points="3113.94,345.905,3105.355,341.079,3108.962,345.436,3104.604,349.043,3113.94,345.905" fill="#444" style="stroke:#444;stroke-width:2;stroke-linejoin:miter;stroke-miterlimit:10;"/><text x="2640.095" y="283.313" fill="#444" font-size="24" textLength="23.355">6:</text><text x="2663.451" y="283.313" fill="#444" font-size="24"> </text><text x="2671.08" y="283.313" fill="#444" font-size="24" textLength="71.684">Marks</text><text x="2742.763" y="283.313" fill="#444" font-size="24"> </text><text x="2750.392" y="283.313" fill="#444" font-size="24" textLength="39.387">the</text><text x="2616.23" y="311.25" fill="#444" font-size="24" textLength="55.617">scan</text><text x="2671.847" y="311.25" fill="#444" font-size="24"> </text><text x="2679.476" y="311.25" fill="#444" font-size="24" textLength="21.879">in</text><text x="2701.355" y="311.25" fill="#444" font-size="24"> </text><text x="2708.984" y="311.25" fill="#444" font-size="24" textLength="104.66">progress</text><text x="2648.293" y="331.762" fill="#444" font-size="16" textLength="96.648">[DynamoDB</text><text x="2744.941" y="331.762" fill="#444" font-size="16"> </text><text x="2750.027" y="331.762" fill="#444" font-size="16" textLength="31.555">API]</text></g><!--link SmarterGrantsManagementOpportunity.FileScanner to SmarterGrantsManagementOpportunity.FileScanCache--><g class="link" data-entity-1="ent0005" data-entity-2="ent0007" id="lnk16" data-source-line="113" data-link-type="dependency"><path d="M2249.25,230.395 C2449.81,225.775 2704.1,229.705 2928.14,263.035 C2989.34,272.135 3049.455,286.581 3109.055,303.751" style="stroke:#444;stroke-width:2;stroke-dasharray:10,10;" fill="none" id="SmarterGrantsManagementOpportunity.FileScanner-to-SmarterGrantsManagementOpportunity.FileScanCache-1"/><polygon points="3113.86,305.135,3106.319,298.8,3109.055,303.751,3104.104,306.487,3113.86,305.135" fill="#444" style="stroke:#444;stroke-width:2;stroke-linejoin:miter;stroke-miterlimit:10;"/><text x="2640.062" y="149.412" fill="#444" font-size="24" textLength="23.355">9:</text><text x="2663.418" y="149.412" fill="#444" font-size="24"> </text><text x="2671.046" y="149.412" fill="#444" font-size="24" textLength="71.684">Marks</text><text x="2742.73" y="149.412" fill="#444" font-size="24"> </text><text x="2750.359" y="149.412" fill="#444" font-size="24" textLength="39.387">the</text><text x="2627.23" y="177.35" fill="#444" font-size="24" textLength="55.617">scan</text><text x="2682.847" y="177.35" fill="#444" font-size="24"> </text><text x="2690.476" y="177.35" fill="#444" font-size="24" textLength="112.102">complete</text><text x="2649.964" y="205.287" fill="#444" font-size="24" textLength="24.551">or</text><text x="2674.515" y="205.287" fill="#444" font-size="24"> </text><text x="2682.144" y="205.287" fill="#444" font-size="24" textLength="97.699">infected</text><text x="2648.259" y="225.799" fill="#444" font-size="16" textLength="96.648">[DynamoDB</text><text x="2744.908" y="225.799" fill="#444" font-size="16"> </text><text x="2749.994" y="225.799" fill="#444" font-size="16" textLength="31.555">API]</text></g><!--link SmarterGrantsManagementOpportunity.FileScanner to SmarterGrantsManagementOpportunity.API--><g class="link" data-entity-1="ent0005" data-entity-2="ent0004" id="lnk15" data-source-line="112" data-link-type="dependency"><path d="M2232.4,273.345 C2258.17,286.025 2281.72,302.575 2301.33,324.035 C2317.74,341.985 2293.67,416.305 2311.33,433.035 C2318.97,440.265 2403.391,443.91 2496.001,445.85" style="stroke:#444;stroke-width:2;stroke-dasharray:10,10;" fill="none" id="SmarterGrantsManagementOpportunity.FileScanner-to-SmarterGrantsManagementOpportunity.API"/><polygon points="2501,445.955,2492.086,441.768,2496.001,445.85,2491.918,449.766,2501,445.955" fill="#444" style="stroke:#444;stroke-width:2;stroke-linejoin:miter;stroke-miterlimit:10;"/><text x="2316.197" y="361.312" fill="#444" font-size="24" textLength="23.355">8:</text><text x="2339.553" y="361.312" fill="#444" font-size="24"> </text><text x="2347.182" y="361.312" fill="#444" font-size="24" textLength="93.141">Reports</text><text x="2440.322" y="361.312" fill="#444" font-size="24"> </text><text x="2447.951" y="361.312" fill="#444" font-size="24" textLength="39.387">the</text><text x="2367.555" y="389.25" fill="#444" font-size="24" textLength="68.426">result</text><text x="2349.326" y="409.762" fill="#444" font-size="16" textLength="57.625">[HTTPS</text><text x="2406.951" y="409.762" fill="#444" font-size="16"> </text><text x="2412.037" y="409.762" fill="#444" font-size="16" textLength="42.172">POST</text><text x="2312.33" y="428.387" fill="#444" font-size="16" textLength="108.57">/v1/files/{id},</text><text x="2420.9" y="428.387" fill="#444" font-size="16"> </text><text x="2425.986" y="428.387" fill="#444" font-size="16" textLength="25.313">API</text><text x="2451.299" y="428.387" fill="#444" font-size="16"> </text><text x="2456.385" y="428.387" fill="#444" font-size="16" textLength="34.82">key]</text></g><?plantuml-src vLXTKziu57tFhxZJVMbdyWrqgHUO2O4466Xf719WsmVPLc8rjfILP4BeyD_todOIX-1kqjtkjjlCXB65R9rpxjMzHz5C1nJs57kWLdtxu6ZAISXSw34wiS0EYTHKGbiIhXLS44w6DAHSM_1kF1PIHvpfwLx5F7tmWS_VSZKE1F60m805j0XtJ4Qgf5p2WUaY4Ew1fEPnq3x5InK5kfo-fL1GL8EYOoA95XAuuBGGq07E5I3PqDVWCKbTpGGlg17ZPc8827243q6zcXdamgDcSAVWCu-2GYfKwEcO5WfxIay3N0r02g7XCru0719tD9GYubvJ149QyCiW_lmM_xSbk9wDRySVC_w8tqe5ZeDO5xmffvUbJly-SFgzo6lix-SkKAkztdMyP85pnkbilEfix-vkByPj0zU2wcAawpDtnAbI5jHN0Ju5Rfl8G3rzuucGx057IT08s90d4NNnBvN91DiddfWmFfmlUK7kMHY5VUPftuBjdUeg-U8HqSGXYZwhGlF--EQwuz-4hOVRzp-B8gTy88dICd9r96dnCY2SKmywD1Ht9CZHwSm9RwStrs-hBkzzyavwqrlx_htJRaLEs1kTjivmtflwJN-Ih-6EjridkwiQklNjMjLTqR1MBTM-RntFIUXu94UlYvj-ZTssZt-IdEfJ9qU8wzl-wVzSX0uDY2dzocTZeqBsldGLzXJMcB5JttaWxM2IIl4yXVpyNotoUSN_ESBBwElLBFhr-gdXTMWYH-IqT5Ml-Ixl12uxF773LkITN0ox_LPqq_UIi1-9ONVhSE9idLMz_ixOEndjhzNElkCKU2oW6KZwSy6qUiA7w55UhAVUp8RKNX_yRek1dX19mPvYymy_fXxZ1Upj_Is13mvYYJFOzlTnMq9B8atAlIo6fc6E2g9ER-czBdzI7-U6wGEFkGXP6X0N-SC4Nt9rMZO0y_OthatKB9CIAHPAP7Ge8w0PdgTO6vUdq2QQJiWq1sgZRqDcLXPo_5Bm19gp0Nv94CGpjII30NEBmBWRH9vXOzpT88K0BoUOGZxu29vXzCI4muXEOSAqZqOD3Poc4B2GwLTbwE1DARvHyRlDH3TWI52LOTP4pU8oQQHvWgtTITSM5T6aaZoZQOwMbrFj2mulSKOh86fK1FlzUIDmVHfEY-08BRPU5Q6D2xX2Si2fnqqRMaGESQMiyfrZknlhCTDzk9mzOanbKWsV5mIDw2P4aQ5FxyaG0I6_5bfvi5sZlVn2qYIT6bucf1VqcW496xqiczxyLA0WYWyCAic6P6hccA3ICu8oPm2JL0WkB-HpCx0sKqCivOMClTJ3BYYZmFXK7kMGO6a3UolBB3d-c1J55wWYg770DEuBH1zn5I_bLN0ulOgPCZx0RCAxF69BxdapSWc3PycPCrcJO2f-cLzyB1H7XrcMyRDA4nqfmCJ3BuztVNBc6uiWG0MSQHom9Bxf7lu6315ApABmM2XiLXgXL3hORECZ-2-w3aHkmOkQXLxbZuWgp5e2OqnWR7qeIAh4LUSyg_YP_UvjvQJRlRIBS5swQ5zqIrqnedpUiGgRGLoVr7fiwXRsTOcj5FTeScQFgMKfnEZng4_0GTzXb6sS7swAVrtWIq5VZyAM1Kr9KPyu7ccknhz9O1aNSgbdpzBT59gDA7n5OcLsw7f4jYsuIijbt63DFbwgB2jHAMRo3nDl8qPPU1i61ml8UensBEXADXnIcL0oH9Pit1RGErnaS-0fYc-NLQyjzA5ojC2DXHpL5aCKNFqZAVMrF3P9gL-HXRYZomarRqzeDkRTwKbO_WKoQzUeNLDn4xkm-5bnjK9TlaCJLRchLUBcNFdClCVYp6H-XmdsPYN1N16E0ufkEHEN_wfuRTmLgnOQAYp3ePhLtjZO_KYzi5PxqWnLJEX7x8arxEkNQDJIO2HcxgzpwKy0?></g></svg>